<?xml version="1.0" encoding="utf-8"?>
<!-- Generator: Adobe Illustrator 23.1.1, SVG Export Plug-In . SVG Version: 6.00 Build 0)  -->
<svg version="1.1" id="Layer_1" xmlns="http://www.w3.org/2000/svg" xmlns:xlink="http://www.w3.org/1999/xlink" x="0px" y="0px"
	 width="1157px" height="444px" viewBox="0 0 1157 444" style="enable-background:new 0 0 1157 444;" xml:space="preserve">
<style type="text/css">
	.st0{fill-rule:evenodd;clip-rule:evenodd;fill:#2C485D;}
	.st1{fill-rule:evenodd;clip-rule:evenodd;fill:#1F616D;}
	.st2{fill-rule:evenodd;clip-rule:evenodd;fill:#CCCCCC;}
	.st3{fill-rule:evenodd;clip-rule:evenodd;fill:#F8F2F2;}
	.st4{fill:none;}
</style>
<polygon class="st0" points="496.02,201.3 417.31,443.99 698.79,443.99 496.02,201.3 "/>
<polygon class="st1" points="496.02,201.3 484.68,259.15 507.89,313.68 481.91,381.19 496.02,443.99 293.25,443.99 496.02,201.3 "/>
<polygon class="st2" points="496.02,201.3 473.59,270.46 484.36,261.03 508.37,313.71 525.67,276.93 571.74,291.93 496.02,201.3 "/>
<polygon class="st3" points="496.02,201.3 484.68,259.15 501.25,298.08 484.36,261.03 465.02,277.97 453.19,252.56 496.02,201.3 "/>
<polygon class="st0" points="1036.97,122.25 932.63,443.99 1158,443.99 1158,267.12 1036.97,122.25 "/>
<polygon class="st1" points="1036.97,122.25 1021.93,198.94 1053.82,272.29 1049.77,318.41 1057.29,373.66 1036.97,443.99 
	768.15,443.99 1036.97,122.25 "/>
<polygon class="st2" points="1036.97,122.25 1007.22,213.94 1021.5,201.45 1053.34,271.26 1076.27,222.53 1137.35,242.4 
	1036.97,122.25 "/>
<polygon class="st3" points="1036.97,122.25 1053.66,272.25 1021.5,201.45 995.85,223.88 980.19,190.2 1036.97,122.25 "/>
<polygon class="st0" points="768.15,0 674.21,443.99 1010.18,443.99 768.15,0 "/>
<polygon class="st1" points="768.15,0 749.05,111.45 782.3,150.08 733.01,218.12 801.05,345.14 768.15,443.99 526.13,443.99 
	768.15,0 "/>
<polygon class="st2" points="768.15,0 746.14,104.06 750.26,111.48 775.73,90.78 818.73,144.4 834.66,122 768.15,0 "/>
<polygon class="st3" points="768.15,0 749.33,109.81 731.15,88.9 709.53,108.02 768.15,0 "/>
<polygon class="st4" points="469.65,387.3 470.98,381.13 467.05,381.12 "/>
<polygon class="st4" points="416.83,402.14 419.44,395.97 415.5,395.99 "/>
<polygon class="st4" points="472.62,394.28 472.75,393.87 472.45,393.87 "/>
<polygon class="st4" points="413.87,409.11 414.04,408.72 413.73,408.71 "/>
</svg>
